<svg xmlns="http://www.w3.org/2000/svg" viewBox="0 0 100 100">
  <defs>
    <linearGradient id="grad" x1="0%" y1="0%" x2="100%" y2="100%">
      <stop offset="0%" style="stop-color:#6C63FF;stop-opacity:1" />
      <stop offset="100%" style="stop-color:#00D4AA;stop-opacity:1" />
    </linearGradient>
  </defs>
  <rect width="100" height="100" rx="20" fill="#1A1A2E"/>
  <g transform="translate(20, 20) scale(2.5)">
    <path fill="url(#grad)" d="M21.08 8.58v-.01a1 1 0 0 0-.01-.13c0-.02 0-.04-.01-.05a1 1 0 0 0-.04-.12l-.01-.04c-.02-.04-.04-.08-.06-.11l-.01-.02c-.03-.04-.06-.09-.1-.13l-.02-.02c-.03-.04-.07-.07-.11-.11l-.02-.01-.14-.1h-.01c-.05-.03-.1-.05-.15-.07l-.01-.01c-.05-.02-.11-.03-.16-.04h-.01L12 6.26l-8.21 1.34h-.01c-.06.01-.11.02-.16.04l-.01.01c-.05.02-.1.04-.15.07h-.01l-.14.1-.02.01c-.04.04-.08.07-.11.11l-.02.02c-.04.04-.07.09-.1.13l-.01.02c-.02.04-.04.07-.06.11l-.01.04c-.02.04-.03.08-.04.12 0 .02 0 .04-.01.05a1 1 0 0 0-.01.13v.01V15a1 1 0 0 0 .69.95l8 2.57a1 1 0 0 0 .31.05 1 1 0 0 0 .31-.05l8-2.57A1 1 0 0 0 21.08 15V8.58z"/>
  </g>
</svg>
